<svg width="24" height="23" viewBox="0 0 24 23" fill="none" xmlns="http://www.w3.org/2000/svg">
<path d="M9.94793 17.0159C8.53422 17.0159 7.36865 18.1815 7.36865 19.5952C7.36865 21.0088 8.53432 22.1744 9.94793 22.1744C11.3617 22.1754 12.5272 21.0097 12.5272 19.5959C12.5272 18.1821 11.3616 17.0156 9.94793 17.0156V17.0159ZM9.94793 20.6127C9.37721 20.6127 8.93051 20.166 8.93051 19.5953C8.93051 19.0245 9.37721 18.5778 9.94793 18.5778C10.5187 18.5778 10.9654 19.0245 10.9654 19.5953C10.9644 20.1417 10.4935 20.6127 9.94793 20.6127Z" fill="white"/>
<path d="M18.4816 17.0156C17.0679 17.0156 15.9023 18.1813 15.9023 19.5949C15.9023 21.0085 17.068 22.1742 18.4816 22.1742C19.8952 22.1742 21.0609 21.0085 21.0609 19.5949C21.0367 18.1822 19.8952 17.0156 18.4816 17.0156ZM18.4816 20.6124C17.9109 20.6124 17.4642 20.1657 17.4642 19.595C17.4642 19.0243 17.9109 18.5776 18.4816 18.5776C19.0524 18.5776 19.4991 19.0243 19.4991 19.595C19.4991 20.1415 19.0272 20.6124 18.4816 20.6124Z" fill="white"/>
<path d="M14.5725 10.6121C14.4886 10.6121 14.4056 10.5985 14.3252 10.5721C14.3172 10.5697 14.3109 10.5681 14.3047 10.5649C14.2136 10.5314 14.1341 10.4851 14.0671 10.4244L11.4965 8.23C11.3607 8.11021 11.2866 7.9489 11.2866 7.7788C11.2866 7.60871 11.3607 7.44738 11.4965 7.3276C11.6304 7.20701 11.8108 7.13993 12.0009 7.13993C12.1911 7.13993 12.3715 7.20621 12.5054 7.3276L13.8582 8.43191V1.45455C13.8582 1.10236 14.1779 0.815674 14.5725 0.815674C14.9672 0.815674 15.2869 1.10156 15.2869 1.45455V8.43027L16.6397 7.32596C16.7745 7.20538 16.954 7.13829 17.1441 7.13829C17.3343 7.13829 17.5147 7.20458 17.6486 7.32596C17.7835 7.44575 17.8585 7.60707 17.8585 7.77716C17.8585 7.94727 17.7843 8.10858 17.6486 8.22837L15.077 10.4228C15.0101 10.4826 14.9315 10.529 14.8431 10.5625C14.8351 10.5649 14.827 10.5681 14.8181 10.5713C14.7368 10.5992 14.6556 10.6121 14.5725 10.6121Z" fill="white"/>
<path fill-rule="evenodd" clip-rule="evenodd" d="M21.1834 3.64622C21.9024 3.64622 22.5971 3.9931 23.0438 4.56383L23.0438 4.5639C23.5157 5.13463 23.6639 5.87879 23.4905 6.57452L21.6301 14.2149C21.382 15.2817 20.414 16.0259 19.3229 16.0259H9.42601C8.33397 16.0259 7.39216 15.2817 7.1189 14.2149L4.09287 2.15888C3.99404 1.78679 3.67137 1.53874 3.29929 1.53874H0.769369C0.346881 1.53874 0 1.19087 0 0.769369C0 0.346881 0.347873 0 0.769369 0H3.29929C4.39133 0 5.33315 0.744167 5.6064 1.811L6.07731 3.64622H11.5112V5.20932H6.47457L8.63246 13.866C8.73129 14.238 9.05396 14.4861 9.42604 14.4861H19.324C19.696 14.4861 20.0187 14.238 20.1175 13.866L21.9779 6.2256L21.9781 6.22577C22.0518 5.97772 21.9781 5.72966 21.8299 5.53199C21.6806 5.33334 21.4326 5.20932 21.1845 5.20932H17.6339V3.64622H21.1834Z" fill="white"/>
</svg>
