<svg width="20" height="19" viewBox="0 0 20 19" fill="none" xmlns="http://www.w3.org/2000/svg">
<path d="M8.12389 13.8958C6.96941 13.8958 6.01758 14.8477 6.01758 16.0021C6.01758 17.1565 6.96949 18.1084 8.12389 18.1084C9.27837 18.1092 10.2302 17.1573 10.2302 16.0027C10.2302 14.8481 9.27829 13.8958 8.12389 13.8958Z" fill="white"/>
<path d="M15.0917 13.8955C13.9372 13.8955 12.9854 14.8474 12.9854 16.0018C12.9854 17.1562 13.9373 18.1081 15.0917 18.1081C16.2461 18.1081 17.198 17.1562 17.198 16.0018C17.1782 14.8481 16.2461 13.8955 15.0917 13.8955Z" fill="white"/>
<path fill-rule="evenodd" clip-rule="evenodd" d="M17.299 2.9776C17.8861 2.9776 18.4534 3.26088 18.8182 3.72695C19.2036 4.19302 19.3246 4.80079 19.183 5.36893L17.6637 11.6083C17.4611 12.4795 16.6706 13.0872 15.7796 13.0872H7.69755C6.80576 13.0872 6.03664 12.4795 5.81349 11.6083L3.34235 1.763C3.26165 1.45915 2.99814 1.25658 2.69429 1.25658H0.628288C0.283273 1.25658 0 0.972494 0 0.628288C0 0.283273 0.284083 0 0.628288 0H2.69429C3.58608 0 4.3552 0.607707 4.57835 1.47892L4.9629 2.9776H17.299ZM10.2243 11.3658C10.4139 11.5594 10.6699 11.666 10.9356 11.666L10.9355 11.666H10.9544C11.2297 11.666 11.4953 11.5405 11.6754 11.3371L16.1328 6.38108C16.5122 5.96527 16.4837 5.31642 16.0758 4.93909C15.6683 4.55192 15.0326 4.58103 14.6629 4.99731L10.907 9.17859L9.10506 7.33956C8.7165 6.94256 8.08113 6.94256 7.69214 7.33956C7.30314 7.73611 7.30314 8.38456 7.69214 8.78156L10.2243 11.3658Z" fill="white"/>
</svg>
