<svg width="16" height="16" viewBox="0 0 16 16" fill="none" xmlns="http://www.w3.org/2000/svg">
<path d="M15.45 0.175781C15.2157 -0.0585937 14.836 -0.0585937 14.6016 0.175781L7.81291 6.96448L1.02421 0.175781C0.789836 -0.0585937 0.410141 -0.0585937 0.175781 0.175781C-0.0585787 0.410156 -0.0585937 0.789851 0.175781 1.02421L6.96448 7.81291L0.175781 14.6016C-0.0585937 14.836 -0.0585937 15.2157 0.175781 15.45C0.410156 15.6844 0.789851 15.6844 1.02421 15.45L7.81291 8.66134L14.6016 15.45C14.836 15.6844 15.2157 15.6844 15.45 15.45C15.6844 15.2157 15.6844 14.836 15.45 14.6016L8.66134 7.81291L15.45 1.02421C15.6844 0.789836 15.6844 0.410141 15.45 0.175781Z" fill="white"/>
</svg>
