<svg width="13" height="12" viewBox="0 0 13 12" fill="none" xmlns="http://www.w3.org/2000/svg">
<path d="M4.19997 0C3.08106 0 2.06721 0.219842 1.30813 0.599368C0.549052 0.978894 0 1.54491 0 2.24437V8.96437C0 9.65726 0.543046 10.2205 1.30375 10.6007C2.06445 10.9808 3.08007 11.2044 4.20007 11.2044C5.14125 11.2044 6.00747 11.0437 6.71139 10.7669C7.26155 11.0458 7.88225 11.2044 8.54007 11.2044C10.779 11.2044 12.6001 9.38332 12.6001 7.14444C12.6001 4.90556 10.779 3.08444 8.54007 3.08444C8.49195 3.08444 8.44327 3.08717 8.3957 3.08881V2.24445C8.3957 1.54499 7.85102 0.978971 7.09195 0.599445C6.33289 0.219919 5.31899 7.70378e-05 4.20011 7.70378e-05L4.19997 0ZM4.19997 0.564368C5.24615 0.564368 6.19175 0.78148 6.85129 1.11124C7.51083 1.44099 7.84442 1.86101 7.84442 2.24437C7.71427 2.83882 7.2784 3.16639 6.85129 3.37312C6.19177 3.70289 5.24619 3.91999 4.19997 3.91999C3.15375 3.91999 2.20819 3.70287 1.54865 3.37312C1.05974 3.11991 0.615132 2.73382 0.55552 2.24437C0.55552 1.86101 0.889112 1.44101 1.54865 1.11124C2.20819 0.781466 3.15375 0.564368 4.19997 0.564368ZM0.559972 3.38187C0.767242 3.57273 1.02372 3.7428 1.3081 3.885C2.06717 4.26453 3.08106 4.48437 4.19994 4.48437C4.68502 4.48437 5.14877 4.43952 5.58244 4.36187C5.25213 4.71296 4.98471 5.12312 4.79494 5.57374C4.60135 5.59069 4.40283 5.60436 4.19994 5.60436C3.15542 5.60436 2.21152 5.3867 1.5531 5.05749C0.894684 4.72828 0.559972 4.31429 0.559972 3.92436V3.38187ZM8.53997 3.64437C10.4765 3.64437 12.04 5.20789 12.04 7.14437C12.04 9.08085 10.4765 10.6444 8.53997 10.6444C6.60349 10.6444 5.03997 9.08085 5.03997 7.14437C5.03997 5.20789 6.60349 3.64437 8.53997 3.64437ZM0.559972 5.06187C0.76615 5.25164 1.02045 5.41898 1.30372 5.56062C2.06388 5.94069 3.07948 6.16437 4.20004 6.16437C4.33676 6.16437 4.46965 6.1578 4.60254 6.15124C4.5227 6.46897 4.48004 6.80202 4.48004 7.14437C4.48004 7.18977 4.48278 7.23516 4.48442 7.28C4.39035 7.28383 4.29628 7.28438 4.20005 7.28438C3.15552 7.28438 2.21163 7.06672 1.55321 6.73751C0.894789 6.4083 0.560077 5.9943 0.560077 5.60437L0.559972 5.06187ZM0.559972 6.74187C0.76615 6.93164 1.02045 7.09898 1.30372 7.24062C2.06388 7.62069 3.07948 7.84437 4.20004 7.84437C4.31489 7.84437 4.42918 7.84109 4.54129 7.83562C4.60801 8.22116 4.72832 8.58867 4.89566 8.92937C4.6698 8.95179 4.43902 8.96437 4.20003 8.96437C3.1555 8.96437 2.21161 8.74671 1.55319 8.4175C0.894768 8.08829 0.560056 7.6743 0.560056 7.28437L0.559972 6.74187ZM0.559972 8.42187C0.76615 8.61164 1.02045 8.77898 1.30372 8.92062C2.06388 9.30069 3.07948 9.52437 4.20004 9.52437C4.54895 9.52437 4.88747 9.50468 5.21067 9.46312C5.45677 9.81585 5.7559 10.1232 6.09881 10.3819C5.54646 10.5443 4.89623 10.6444 4.20013 10.6444C3.1556 10.6444 2.21227 10.4267 1.55329 10.0975C0.894306 9.76829 0.560154 9.3543 0.560154 8.96437L0.559972 8.42187Z" fill="#5ECE7B"/>
</svg>
