<svg width="14" height="18" viewBox="0 0 14 18" fill="none" xmlns="http://www.w3.org/2000/svg">
<path d="M11.0849 17.9231H2.91552C1.53458 17.9231 0.4104 16.799 0.4104 15.418V9.65893C0.4104 8.27799 1.53446 7.15381 2.91552 7.15381H11.0849C12.4658 7.15381 13.59 8.27787 13.59 9.65893V15.4189C13.59 16.7999 12.4659 17.9231 11.0849 17.9231ZM2.91552 7.87501C1.93114 7.87501 1.13052 8.67562 1.13052 9.66001V15.42C1.13052 16.4044 1.93114 17.205 2.91552 17.205H11.0849C12.0693 17.205 12.8699 16.4044 12.8699 15.42V9.65905C12.8699 8.67466 12.0693 7.87405 11.0849 7.87405L2.91552 7.87501Z" fill="black"/>
<path d="M6.1713 14.2181L4.16504 12.2118L4.6741 11.7028L6.1713 13.2L9.3261 10.0452L9.83516 10.5542L6.1713 14.2181Z" fill="black"/>
<path d="M4.75491 7.69958H4.03491V5.33239C4.03491 3.69739 5.36523 2.36719 7.00011 2.36719C8.63499 2.36719 9.96531 3.69751 9.96531 5.33239V7.68645H9.24531V5.33239C9.24531 4.09394 8.23844 3.08707 6.99999 3.08707C5.7625 3.08707 4.75467 4.09394 4.75467 5.33239L4.75491 7.69958Z" fill="black"/>
<path d="M12.2564 7.6996H11.5364V5.33241C11.5364 2.83113 9.50105 0.795928 6.99989 0.795928C4.49873 0.795928 2.46341 2.83125 2.46341 5.33241V7.6996H1.74341V5.33241C1.74341 2.43369 4.10122 0.0759277 6.99989 0.0759277C9.89856 0.0759277 12.2564 2.43374 12.2564 5.33241V7.6996Z" fill="black"/>
</svg>
