<svg width="32" height="31" viewBox="0 0 32 31" fill="none" xmlns="http://www.w3.org/2000/svg">
<path fill-rule="evenodd" clip-rule="evenodd" d="M28.8156 5.42042C29.7787 5.42042 30.7094 5.88508 31.3078 6.6496C31.9399 7.41411 32.1384 8.41106 31.9061 9.34301L29.414 19.5776C29.0817 21.0067 27.785 22.0036 26.3235 22.0036H13.0661C11.6032 22.0036 10.3416 21.0067 9.97556 19.5776L5.92205 3.42805C5.78967 2.92963 5.35743 2.59735 4.85901 2.59735H1.47006C0.904117 2.59735 0.439453 2.13135 0.439453 1.56674C0.439453 1.0008 0.905446 0.536133 1.47006 0.536133H4.85901C6.32185 0.536133 7.58346 1.53298 7.9495 2.96206L8.58031 5.42042H28.8156ZM18.1376 17.6569C18.3484 17.8781 18.6328 18 18.928 18L18.9279 18H18.9489C19.2548 18 19.5499 17.8566 19.75 17.6241L24.7027 11.9601C25.1242 11.4849 25.0925 10.7433 24.6393 10.3121C24.1866 9.8696 23.4802 9.90287 23.0694 10.3786L18.8962 15.1572L16.8941 13.0555C16.4623 12.6018 15.7564 12.6018 15.3242 13.0555C14.8919 13.5087 14.8919 14.2498 15.3242 14.7035L18.1376 17.6569Z" fill="white"/>
<path d="M13.7656 23.3296C11.8719 23.3296 10.3105 24.8911 10.3105 26.7847C10.3105 28.6783 11.872 30.2397 13.7656 30.2397C15.6594 30.241 17.2207 28.6796 17.2207 26.7857C17.2207 24.8917 15.6592 23.3296 13.7656 23.3296Z" fill="white"/>
<path d="M25.1968 23.3296C23.303 23.3296 21.7417 24.891 21.7417 26.7847C21.7417 28.6783 23.3032 30.2397 25.1968 30.2397C27.0904 30.2397 28.6518 28.6783 28.6518 26.7847C28.6194 24.8922 27.0904 23.3296 25.1968 23.3296Z" fill="white"/>
</svg>
