<svg width="11" height="10" viewBox="0 0 11 10" fill="none" xmlns="http://www.w3.org/2000/svg">
<path d="M5.49976 10C5.3989 10 5.29804 9.96593 5.2141 9.89777L4.97074 9.70013C2.73552 7.8886 1.38653 6.79485 0.601258 5.33557C-0.151615 3.94117 -0.0611769 2.83977 0.146403 2.16178C0.399526 1.33781 0.968907 0.674695 1.75107 0.294419C2.15321 0.0995006 2.5905 0 3.04925 0C4.01946 0 4.91615 0.432775 5.49986 1.14632C6.08355 0.432775 6.97958 0 7.95046 0C8.40922 0 8.84585 0.0988218 9.248 0.293739C10.0302 0.674032 10.6002 1.33648 10.8533 2.1611C11.0615 2.83853 11.1513 3.93983 10.3985 5.33489C9.61238 6.79404 8.26153 7.88932 6.02364 9.70346L5.78613 9.8977C5.70154 9.96585 5.60067 9.99993 5.49981 9.99993L5.49976 10ZM3.04915 0.978648C2.72639 0.978648 2.42186 1.0468 2.14335 1.18175C1.60066 1.4455 1.20697 1.8994 1.03519 2.46097C0.818499 3.16635 0.949947 3.99441 1.4139 4.85453C2.10236 6.13375 3.31145 7.11864 5.49902 8.89265C7.68676 7.11933 8.89582 6.13323 9.58415 4.85523C10.0488 3.99446 10.1795 3.1664 9.96351 2.46097C9.79106 1.90008 9.39739 1.4455 8.8547 1.18175C8.57683 1.04681 8.2723 0.978648 7.94955 0.978648C7.07304 0.978648 6.25839 1.48843 5.92256 2.24696C5.84643 2.42007 5.6805 2.53048 5.49894 2.53048C5.31673 2.53048 5.15211 2.42007 5.07532 2.24696C4.7402 1.48842 3.92551 0.978648 3.049 0.978648H3.04915Z" fill="#5ECE7B"/>
</svg>
