<svg width="21" height="14" viewBox="0 0 21 14" fill="none" xmlns="http://www.w3.org/2000/svg">
<path d="M1.32 0.620117C0.596398 0.620117 0 1.21652 0 1.94012V12.0601C0 12.7837 0.596398 13.3801 1.32 13.3801H18.92C19.6436 13.3801 20.24 12.7837 20.24 12.0601V1.94012C20.24 1.21652 19.6436 0.620117 18.92 0.620117H1.32ZM1.60186 1.50012H18.6382L10.56 8.3958C10.3572 8.56853 9.88286 8.56853 9.68004 8.3958L1.60186 1.50012ZM0.88 2.04325L6.64818 6.95893L0.88 11.9433V2.04325ZM19.36 2.04325V11.9433L13.5918 6.95893L19.36 2.04325ZM7.32182 7.54325L9.10932 9.06262C9.68939 9.55848 10.5505 9.55848 11.1306 9.06262L12.9181 7.54325L18.6517 12.5001H1.58807L7.32182 7.54325Z" fill="#1D1F22"/>
</svg>
