<svg width="14" height="16" viewBox="0 0 14 16" fill="none" xmlns="http://www.w3.org/2000/svg">
<path d="M6.70362 11.3757C6.70362 11.2438 6.59674 11.1363 6.46424 11.1363H1.05736C1.18174 8.77822 3.13928 6.89886 5.5268 6.89886C6.3893 6.89886 7.2268 7.14449 7.94808 7.61011C8.05933 7.68136 8.20683 7.65011 8.27871 7.53886C8.35058 7.42761 8.31808 7.27948 8.20746 7.20823C7.4087 6.69323 6.48186 6.42073 5.52682 6.42073C2.79562 6.42073 0.573059 8.64393 0.573059 11.3758C0.573059 11.5076 0.679934 11.6151 0.812435 11.6151H6.46491C6.59616 11.6145 6.70366 11.5076 6.70366 11.3758L6.70362 11.3757Z" fill="#5ECE7B"/>
<path d="M5.4437 5.97676C7.02432 5.97676 8.30994 4.69113 8.30994 3.11052C8.30994 1.53114 7.02431 0.246201 5.4437 0.246201C3.86432 0.246201 2.58002 1.53119 2.58002 3.11052C2.58002 4.69114 3.86439 5.97676 5.4437 5.97676ZM5.4437 0.724281C6.75995 0.724281 7.83122 1.7949 7.83122 3.11052C7.83122 4.4274 6.75997 5.49868 5.4437 5.49868C4.12807 5.49868 3.0581 4.42743 3.0581 3.11052C3.0581 1.79489 4.12872 0.724281 5.4437 0.724281Z" fill="#5ECE7B"/>
<path d="M13.3287 14.1882L11.6719 11.7776C11.9881 11.3614 12.1631 10.8589 12.1669 10.3276C12.1769 8.98451 11.0919 7.88395 9.74882 7.87323C8.41069 7.86698 7.3045 8.95011 7.29506 10.2932C7.29131 10.8382 7.47007 11.3407 7.77069 11.7495L6.07757 14.1364C6.02069 14.217 6.01882 14.3239 6.07319 14.4064C6.12757 14.4889 6.22632 14.5295 6.32257 14.5089L7.66195 14.2226L7.89758 15.4814C7.91633 15.5807 7.9957 15.6582 8.09571 15.6739C8.10821 15.6757 8.12071 15.677 8.13258 15.677C8.21946 15.677 8.30071 15.6295 8.34258 15.5514L9.71196 13.017L11.0457 15.5701C11.0876 15.6501 11.1695 15.6988 11.2576 15.6988C11.2688 15.6988 11.2801 15.6982 11.2913 15.6963C11.3913 15.6819 11.4719 15.6063 11.4919 15.5069L11.7457 14.2526L13.0788 14.5576C13.1744 14.5794 13.2751 14.5407 13.3301 14.4588C13.3851 14.3763 13.3851 14.2688 13.3288 14.1882L13.3287 14.1882ZM9.73237 8.35187H9.74487C10.8242 8.35999 11.6961 9.24499 11.6881 10.3243C11.6849 10.8468 11.4774 11.3368 11.1049 11.7037C10.7356 12.0675 10.2487 12.2668 9.73121 12.2668H9.71621C8.63683 12.2593 7.76501 11.3756 7.77253 10.2963C7.78065 9.22127 8.65878 8.35196 9.73253 8.35196L9.73237 8.35187ZM8.24237 14.7282L8.08612 13.8926C8.07425 13.8294 8.03737 13.7732 7.98362 13.7376C7.92987 13.7013 7.86362 13.6888 7.80113 13.7026L6.82175 13.9119L8.09801 12.1126C8.43676 12.4194 8.86175 12.6319 9.33301 12.7094L8.24237 14.7282ZM11.6123 13.7301C11.5492 13.7157 11.4835 13.7276 11.4292 13.7619C11.3748 13.7969 11.3373 13.8526 11.3242 13.9157L11.156 14.7488L10.0942 12.715C10.5554 12.6463 10.9835 12.4475 11.3379 12.1357L12.5873 13.9525L11.6123 13.7301Z" fill="#5ECE7B"/>
</svg>
