<svg width="21" height="20" viewBox="0 0 21 20" fill="none" xmlns="http://www.w3.org/2000/svg">
<g clip-path="url(#clip0_99_2513)">
<path d="M10.5001 0C13.9134 0 16.6902 2.6446 16.6902 5.8954C16.6902 8.0994 15.4171 10.0274 13.5665 11.0196C17.3268 12.1766 20.1036 15.3172 20.4505 19.229C20.5662 20.2204 18.5991 20.2759 18.5416 19.3392C18.1364 15.4274 14.6075 12.4524 10.5001 12.4524C6.33456 12.4524 2.86389 15.4274 2.45859 19.3392C2.34293 20.2759 0.37581 20.2204 0.491478 19.229C0.896715 15.372 3.6734 12.1766 7.37549 11.0196C5.52404 10.0282 4.25174 8.0992 4.25174 5.8954C4.25174 2.6446 7.08674 0 10.5001 0ZM10.5001 1.87344C8.12855 1.87344 6.21881 3.6914 6.21881 5.89524C6.21881 8.15384 8.12767 9.97264 10.5001 9.97264C12.8143 9.97264 14.723 8.15468 14.723 5.89524C14.723 3.69124 12.8141 1.87344 10.5001 1.87344Z" fill="#1D1F22"/>
</g>
<defs>
<clipPath id="clip0_99_2513">
<rect width="21" height="20" fill="white"/>
</clipPath>
</defs>
</svg>
