<svg width="20" height="21" viewBox="0 0 20 21" fill="none" xmlns="http://www.w3.org/2000/svg">
<path d="M19.2184 5.34186L15.0167 0H4.20169L0 5.34186V20.066H19.22L19.2184 5.34186ZM17.5565 4.983H10.162V1.10707H14.4949L17.5565 4.983ZM4.72206 1.10707H9.05503V4.983H1.66054L4.72206 1.10707ZM1.07384 18.9579V6.05703H18.1432V18.9579H1.07384Z" fill="#5ECE7B"/>
<path d="M10.584 12.4101L11.0251 11.9617H8.4818C8.14269 11.9617 7.83804 11.9967 7.59958 12.1691C7.12537 12.5138 7.02336 13.0659 7.15846 13.4443C7.26046 13.8577 7.56512 14.3061 8.17579 14.3411C8.68445 14.3761 9.19311 14.3761 9.73623 14.3761H10.5165H10.89C11.2291 14.3761 11.4662 14.6522 11.4662 14.9619C11.4649 15.2716 11.1947 15.5126 10.8887 15.5126H10.5151H9.76936H9.7018H8.98913C8.68446 15.5126 8.41292 15.5126 8.10691 15.4776C7.12404 15.4089 6.30936 14.7195 6.07226 13.719C5.80071 12.7198 6.17426 11.7193 7.02203 11.1336C7.5307 10.7888 8.07381 10.7202 8.54802 10.7202H11.0913L10.5482 10.2717C10.4462 10.1681 10.3787 9.9957 10.3787 9.85836C10.3787 9.72101 10.4462 9.54865 10.5482 9.44497C10.6515 9.34263 10.8211 9.30762 10.9562 9.30762C11.0913 9.30762 11.2609 9.37629 11.3629 9.47998L12.8213 10.9626C12.9233 11.0662 12.9909 11.2386 12.9564 11.376C12.9564 11.5133 12.8889 11.6857 12.7869 11.7893L11.396 13.2719C11.294 13.3756 11.1244 13.4443 10.9893 13.4443C10.8198 13.4443 10.6846 13.3756 10.5827 13.2719C10.4807 13.1682 10.4131 12.9959 10.4131 12.8585C10.38 12.6862 10.4476 12.5138 10.584 12.4101Z" fill="#5ECE7B"/>
</svg>
