<svg width="18" height="27" viewBox="0 0 18 27" fill="none" xmlns="http://www.w3.org/2000/svg">
<path d="M9.00025 1.24309e-05C7.34547 0.00849865 5.76207 0.672852 4.59826 1.84877C3.43445 3.02472 2.78464 4.61405 2.79315 6.26878V9.77605H0.620706C0.277615 9.77605 8.26965e-06 10.0537 8.26965e-06 10.3967V22.8108C-0.00120395 23.0472 0.130938 23.2629 0.341889 23.3696L6.85921 26.5036C8.22062 27.1655 9.81116 27.1655 11.1724 26.5036L17.6581 23.3696C17.8691 23.263 18.0012 23.0472 18 22.8108V10.3967C18 10.2319 17.9345 10.0743 17.8181 9.95788C17.7018 9.8415 17.5442 9.77604 17.3793 9.77604H15.2068V6.26877C15.2153 4.61398 14.5655 3.02467 13.4017 1.84876C12.2379 0.672809 10.6546 0.00847257 8.99974 0L9.00025 1.24309e-05ZM4.03467 6.26878C4.03467 4.49519 4.98148 2.85617 6.51746 1.96888C8.05344 1.08158 9.94712 1.08146 11.483 1.96888C13.019 2.85629 13.9658 4.49531 13.9658 6.26878V9.77605H4.03467V6.26878ZM16.759 22.407L10.6138 25.3869C9.59544 25.8815 8.40494 25.8815 7.38674 25.3869L1.24153 22.4385V11.0173H16.759V22.407Z" fill="#5ECE7B"/>
<path d="M9.02024 20.1303C9.22211 20.1303 9.4151 20.0502 9.5576 19.9077C9.7001 19.7652 9.78025 19.5722 9.78025 19.3703V16.3303C9.78025 15.9102 9.44033 15.5703 9.02025 15.5703C8.60017 15.5703 8.26025 15.9102 8.26025 16.3303V19.3703C8.26025 19.5722 8.34041 19.7652 8.48291 19.9077C8.62541 20.0502 8.81838 20.1303 9.02027 20.1303H9.02024Z" fill="#5ECE7B"/>
</svg>
