<svg width="24" height="24" viewBox="0 0 24 24" fill="none" xmlns="http://www.w3.org/2000/svg">
<path d="M16.0849 20.9231H7.91552C6.53458 20.9231 5.4104 19.799 5.4104 18.418V12.6589C5.4104 11.278 6.53446 10.1538 7.91552 10.1538H16.0849C17.4658 10.1538 18.59 11.2779 18.59 12.6589V18.4189C18.59 19.7999 17.4659 20.9231 16.0849 20.9231ZM7.91552 10.875C6.93114 10.875 6.13052 11.6756 6.13052 12.66V18.42C6.13052 19.4044 6.93114 20.205 7.91552 20.205H16.0849C17.0693 20.205 17.8699 19.4044 17.8699 18.42V12.659C17.8699 11.6747 17.0693 10.874 16.0849 10.874L7.91552 10.875Z" fill="black"/>
<path d="M11.1713 17.2181L9.16504 15.2118L9.6741 14.7028L11.1713 16.2L14.3261 13.0452L14.8352 13.5542L11.1713 17.2181Z" fill="black"/>
<path d="M9.75491 10.6996H9.03491V8.33239C9.03491 6.69739 10.3652 5.36719 12.0001 5.36719C13.635 5.36719 14.9653 6.69751 14.9653 8.33239V10.6865H14.2453V8.33239C14.2453 7.09394 13.2384 6.08707 12 6.08707C10.7625 6.08707 9.75467 7.09394 9.75467 8.33239L9.75491 10.6996Z" fill="black"/>
<path d="M17.2564 10.6996H16.5364V8.33241C16.5364 5.83113 14.501 3.79593 11.9999 3.79593C9.49873 3.79593 7.46341 5.83125 7.46341 8.33241V10.6996H6.74341V8.33241C6.74341 5.43369 9.10122 3.07593 11.9999 3.07593C14.8986 3.07593 17.2564 5.43374 17.2564 8.33241V10.6996Z" fill="black"/>
</svg>
