<svg width="14" height="14" viewBox="0 0 14 14" fill="none" xmlns="http://www.w3.org/2000/svg">
<path fill-rule="evenodd" clip-rule="evenodd" d="M7.30323 0.428783L8.16573 1.41378L9.45573 0.866271C9.66448 0.778146 9.90573 0.891897 9.97198 1.10752L10.3657 2.3769L11.7651 2.4019C11.9914 2.40565 12.1682 2.60626 12.1401 2.83127L11.9845 4.15252L13.2532 4.74439C13.4451 4.83439 13.5282 5.06314 13.4382 5.25502C13.2651 5.61314 12.952 6.07502 12.7401 6.43065L13.6589 7.48878C13.807 7.66002 13.7739 7.92503 13.5895 8.05503L12.5038 8.82191L12.9126 10.1613C12.9789 10.38 12.8414 10.6057 12.6189 10.6494L11.317 10.9088L11.1464 12.2982C11.117 12.5363 10.8789 12.69 10.6514 12.62L9.38198 12.3319L8.66073 13.5313C8.54385 13.7263 8.2826 13.7782 8.10073 13.6419L7.03447 12.8463L5.88759 13.6488C5.69946 13.78 5.44385 13.7188 5.33196 13.5207L4.68321 12.3619L3.30695 12.6294C3.07321 12.6738 2.8582 12.4988 2.85007 12.2631L2.73132 10.9631L1.36758 10.6481C1.14446 10.5969 1.01695 10.365 1.08883 10.1494L1.51633 8.89064L0.398201 8.04752C0.205705 7.90189 0.193209 7.61876 0.369451 7.45689L1.2507 6.50377L0.571947 5.27878C0.460697 5.07878 0.548196 4.82816 0.757579 4.73816L1.97696 4.21441L1.85571 2.81878C1.83508 2.57816 2.0407 2.37878 2.2782 2.4019L3.57321 2.4194L4.02947 1.09503C4.10697 0.870041 4.36572 0.770041 4.57446 0.879401L5.76196 1.42753L6.71697 0.404409C6.87884 0.230665 7.1551 0.244409 7.30134 0.428783H7.30323ZM3.84755 7.14622C3.33693 6.6356 4.11318 5.85872 4.62443 6.36934L6.34443 8.08934L9.35627 4.75062C9.83814 4.21499 10.6532 4.94875 10.1713 5.48437L6.79 9.23189C6.58501 9.48376 6.20626 9.50438 5.97563 9.27376L3.84683 7.1456L3.84755 7.14622Z" fill="#5ECE7B"/>
</svg>
