<svg width="20" height="19" viewBox="0 0 20 19" fill="none" xmlns="http://www.w3.org/2000/svg">
<path d="M18.8182 3.72695C18.4534 3.26088 17.8861 2.9776 17.299 2.9776H4.9629L4.57835 1.47892C4.3552 0.607707 3.58608 0 2.69429 0H0.628288C0.284083 0 0 0.283273 0 0.628288C0 0.972494 0.283273 1.25658 0.628288 1.25658H2.69429C2.99814 1.25658 3.26165 1.45915 3.34235 1.763L5.81349 11.6083C6.03664 12.4795 6.80576 13.0872 7.69755 13.0872H15.7796C16.6706 13.0872 17.4611 12.4795 17.6637 11.6083L19.183 5.36893C19.3246 4.80079 19.2035 4.19308 18.8182 3.72701L18.8182 3.72695ZM17.9478 5.084L16.4285 11.3233C16.3478 11.6272 16.0843 11.8298 15.7805 11.8298H7.69757C7.39371 11.8298 7.13021 11.6272 7.04951 11.3233L5.28732 4.25407H17.2999C17.5024 4.25407 17.705 4.35536 17.8269 4.51757C17.9479 4.679 18.0081 4.88157 17.9479 5.08414L17.9478 5.084Z" fill="white"/>
<path d="M8.1234 13.8957C6.96892 13.8957 6.01709 14.8476 6.01709 16.002C6.01709 17.1564 6.969 18.1083 8.1234 18.1083C9.27789 18.1091 10.2297 17.1572 10.2297 16.0026C10.2297 14.848 9.2778 13.8955 8.1234 13.8955V13.8957ZM8.1234 16.833C7.65733 16.833 7.29255 16.4682 7.29255 16.0021C7.29255 15.536 7.65733 15.1712 8.1234 15.1712C8.58947 15.1712 8.95426 15.536 8.95426 16.0021C8.95347 16.4484 8.56891 16.833 8.1234 16.833Z" fill="white"/>
<path d="M15.0917 13.8955C13.9372 13.8955 12.9854 14.8474 12.9854 16.0018C12.9854 17.1562 13.9373 18.1081 15.0917 18.1081C16.2461 18.1081 17.198 17.1562 17.198 16.0018C17.1782 14.8481 16.2461 13.8955 15.0917 13.8955ZM15.0917 16.8328C14.6256 16.8328 14.2608 16.468 14.2608 16.0019C14.2608 15.5358 14.6256 15.171 15.0917 15.171C15.5577 15.171 15.9225 15.5358 15.9225 16.0019C15.9225 16.4482 15.5372 16.8328 15.0917 16.8328Z" fill="white"/>
</svg>
